# xmcd CD database file
#
# Track frame offsets:
#	150
#	15362
#	31285
#	52027
#	67703
#	87754
#	101804
#	118066
#	135785
#	154190
#
# Disc length: 2244 seconds
#
# Revision: 0
# Processed by: cddbd v1.5.2PL0 Copyright (c) Steve Scherf et al.
# Submitted via: CDex 1.70beta2
#
DISCID=7108c20a
DTITLE=Terry Talbot - Cradle of Love
DYEAR=1977
DGENRE=Country
TTITLE0=Cradle of Love
TTITLE1=Mighty Wind
TTITLE2=Tale of the Times
TTITLE3=Golden Gate Sunset
TTITLE4=Carry Me Away
TTITLE5=Potter's Clay
TTITLE6=Takin' Me Higher
TTITLE7=Satisfied With Blindness
TTITLE8=Let It Play
TTITLE9=Lord How Did It Feel
EXTD=YEAR: 1977
EXTT0=
EXTT1=
EXTT2=
EXTT3=
EXTT4=
EXTT5=
EXTT6=
EXTT7=
EXTT8=
EXTT9=
PLAYORDER=
